<svg xmlns:dc="http://purl.org/dc/elements/1/" xmlns:cc="http://creativecommons.org/ns#" xmlns:rdf="http://www.w3org/1999/2/22-rdf-syntax-ns#" xmlns="http://www.w3.org/2000/svg" xmlns:xlink="http://www.w3.org/1999/xlink" xmlns:inkscape="http://www.inkscape.org/namespaces/inkscape" width="1400" height="4000" id="svg5533"> <defs id="defs5535"> <linearGradient id="linearGradient3776"> <stop id="stop3778" style="stop-color:#d0ddb7;stop-opacity:1" offset="0" /> <stop id="stop3780" style="stop-color:#91bf85;stop-opacity:1" offset="1" /> </linearGradient> <inkscape:path-effect effect="skeletal" id="path-effect7628" /> <inkscape:path-effect effect="skeletal" id="path-effect7624" /> <linearGradient id="linearGradient7585"> <stop id="stop7587" style="stop-color:#5e5162;stop-opacity:1" offset="0" /> <stop id="stop7589" style="stop-color:#5e5162;stop-opacity:0" offset="1" /> </linearGradient> <linearGradient x1="864" y1="-2947" x2="864" y2="1046" id="linearGradient3782" xlink:href="#linearGradient3776" gradientUnits="userSpaceOnUse" /> </defs> <metadata id="metadata5538"> <rdf:RDF> <cc:Work rdf:about=""> <dc:format>image/svg+xml</dc:format> <dc:type rdf:resource="http://purl.org/dc/dcmitype/StillImage" /> <dc:title></dc:title> </cc:Work> </rdf:RDF> </metadata> <g transform="translate(0,2948)" id="layer1"> <rect width="1400" height="4000" x="0" y="-2948" id="rect7722" style="fill:url(#linearGradient3782);fill-opacity:1;stroke:none" /> <path d="M 629,3753 C 433,3782 239,3860 96,4000 l 10,0 c 30,-4 46,-42 73,-54 131,-98 290,-156 451,-179 l -2,-14 z m 192,5 c -36,15 31,16 47,17 163,23 310,114 428,225 l 12,0 c 19,-5 -45,-42 -53,-55 -122,-101 -272,-182 -434,-187 z" transform="translate(0,-2948)" id="path7648" style="font-size:medium;font-style:normal;font-variant:normal;font-weight:normal;font-stretch:normal;text-indent:0;text-align:start;text-decoration:none;line-height:normal;letter-spacing:normal;word-spacing:normal;text-transform:none;direction:ltr;block-progression:tb;writing-mode:lr-tb;text-anchor:start;baseline-shift:baseline;color:#0;fill:#60aa62;fill-opacity:1;stroke:none;stroke-width:14;marker:none;visibility:visible;display:inline;overflow:visible;enable-background:accumulate;font-family:Sans;-inkscape-font-specification:Sans" /> <path d="m 645,1400 c -9,54 21,170 -61,90 -83,-10 -3,-2 18,35 -35,-37 -125,7 -147,12 18,4 38,11 -2,0 -1,0 -2,-0 -2,-1 1,0 1,0 2,1 1,-0 1,-0 2,-0 -16,-3 -30,-4 11,14 57,-18 136,-2 181,-4 -8,-12 -21,-18 -41,-15 -1,1 -4,2 -7,1 -6,1 -12,3 -18,6 -46,-12 -82,-14 -14,-22 16,10 26,15 32,16 2,-1 5,-1 7,-1 5,-4 0,-16 -1,-19 83,79 25,-186 53,-49 18,89 -8,178 1,265 35,59 -19,201 81,153 45,-34 114,-33 136,-95 0,-32 9,-74 -11,-16 -5,70 -107,86 -165,110 -26,-63 -19,-139 -34,-214 17,-86 9,-184 -21,-265 z m 230,385 c -0,7 0,13 2,18 5,-12 6,-26 4,-42 -1,9 -3,17 -6,24 z m 2,18 c -20,55 -98,79 -169,97 -27,63 13,150 1,222 18,104 5,217 18,323 20,38 28,148 31,143 C 768,2500 713,2417 733,2325 c -5,-49 -9,-98 -12,-148 -0,-1 -0,-1 -0,-2 -3,-54 -5,-107 -5,-161 -24,-69 -21,-128 64,-118 43,-28 106,-77 148,-75 -21,-2 -26,-11 -26,-19 -16,17 -23,14 -26,2 z m 26,-2 c 2,-3 5,-6 8,-9 4,-12 -7,-2 -8,9 z m -256,-256 c 0,0 1,1 1,1 -0,-0 -0,-1 -0,-1 -0,0 -0,0 -1,0 z m 1,1 c 10,45 -44,225 -2,106 12,-37 17,-82 2,-106 z m -4,-133 -0,0 0,-0 z m 15,13 0,0 0,-0 z m -17,30 0,0 -0,-0 z m 28,60 0,0 -0,-0 z m -134,10 0,0 -0,0 z m -92,1 c -2,0 3,5 2,0 -1,-0 -1,-0 -2,-0 z m 1,2 0,0 -0,-0 z m 94,6 0,0 -0,-0 z m -12,2 0,0 -0,0 z m 132,119 0,0 0,-0 z m 434,12 -1,0 1,-0 z m 0,0 1,0 -1,-0 z m 2,3 c -2,0 -4,1 -7,4 0,1 1,2 1,4 2,22 -19,90 28,37 34,-64 101,76 41,-7 -19,-6 -56,32 -82,60 6,-3 14,-6 23,-9 33,-45 58,-50 94,-11 2,-84 -80,-46 -99,-30 -1,3 -2,5 -3,5 -2,-0 -1,-2 3,-5 5,-14 10,-47 1,-47 z M 1075,1771 c -14,7 -20,15 -18,22 4,-6 11,-13 18,-22 z m -18,22 c -4,5 -6,8 -7,9 6,4 12,7 19,10 0,-0 1,-0 1,-0 1,1 2,1 1,1 60,24 139,12 171,-51 1,80 -90,83 -130,75 8,23 10,35 9,39 5,5 10,12 15,18 -57,-90 116,-8 103,-109 27,-92 -49,63 -98,24 -35,15 -83,3 -86,-15 z m 81,100 c 2,3 4,7 7,10 -2,-4 -5,-7 -7,-10 z m -15,-18 c -3,-3 -5,-5 -8,-8 4,9 7,12 8,8 z m -8,-8 c -4,-8 -9,-21 -13,-37 -29,16 -187,-70 -149,3 11,8 17,14 20,16 56,44 -67,-68 17,-34 53,12 93,21 125,51 z m -142,-17 c -1,-0 -1,-1 -2,-1 -79,-46 19,18 2,1 z m 99,-38 c -1,-0 -2,-1 -3,-1 -1,1 2,2 3,1 z m 18,-135 -1,1 1,-1 z m 0,1 -2,0 2,-0 z m -7,8 c -2,-0 -5,11 -9,38 -12,83 -120,55 -157,74 l 1,8 c 35,-25 144,16 163,-73 5,-28 5,-46 2,-46 z M 621,1704 c -1,94 36,188 19,280 1,33 -33,210 -7,100 24,-89 26,-180 7,-271 C 638,1776 626,1741 621,1704 z m 622,68 -0,1 0,-1 z m -301,13 -0,0 0,-0 z m 53,5 -1,0 1,-0 z m -49,5 -0,0 0,-0 z m 14,2 0,0 -0,0 z m 79,0 -0,1 0,-1 z m -127,1 3,2 -3,-2 z m 2,1 0,0 -0,-0 z m 128,0 -0,0 0,-0 z m -130,0 -0,0 0,-0 z m 3,0 0,0 -0,-0 z m -0,1 c -16,2 7,14 0,0 z m 29,6 2,1 -2,-1 z m -0,0 -0,0 0,-0 z m -34,1 1,0 -1,-0 z m 7,0 -4,1 4,-1 z m -6,0 1,0 -1,-0 z m 1,0 0,0 -0,-0 z m -1,0 0,0 -0,-0 z m 270,4 0,0 -0,-0 z M 929,1821 c 1,0 3,0 4,0 -1,-0 -3,-0 -4,-0 z m 9,7 0,0 -0,0 z m -71,1 -2,1 2,-1 z m 249,7 -1,0 1,-0 z m -1,1 -0,1 0,-1 z m -322,7 0,1 -0,-1 z M 783,1844 783,1845 783,1844 z m 203,17 1,0 -1,-0 z m -245,10 0,0 -0,-0 z m -56,9 2,1 -2,-1 z m 2,1 2,0 -2,-0 z m 117,0 -0,0 0,-0 z m 341,20 1,1 -1,-1 z m 1,1 c -0,-0 -1,0 -2,0 -1,5 5,-0 2,-0 z m -446,11 -1,2 1,-2 z m -0,1 c -0,0 -0,0 -1,0 -2,5 3,-0 1,-0 z m -70,223 c -5,-0 -14,1 -26,2 -79,46 -158,114 -262,80 -44,-2 -105,78 -26,32 27,30 133,-31 70,32 -48,51 -128,61 -157,138 -25,34 -90,51 -86,89 23,-39 84,-43 27,7 -25,121 50,-114 83,-55 -24,-55 38,55 5,-13 -19,-20 -38,6 -55,20 0,0 0,0 1,0 0,1 1,2 1,2 1,4 -3,1 -3,-1 -0,-0 0,-0 0,-0 -0,0 -0,0 -0,0 -10,8 -18,11 -25,-3 81,-26 107,-153 198,-143 25,41 13,112 4,116 5,-34 1,-71 -14,-88 3,5 3,16 1,34 24,50 -34,126 6,152 13,-80 36,-164 22,-231 12,-22 51,-51 79,-66 32,-17 50,-17 -2,30 -43,54 -1,41 26,5 -23,31 -12,119 -10,143 38,-72 6,-156 65,-215 -1,-21 32,-32 55,-37 -5,0 -10,1 -17,2 -96,9 85,-30 43,-30 z m -27,29 c 37,-4 23,-5 0,0 z m -120,252 c -1,1 -1,2 -2,3 2,5 2,3 2,-3 z m -121,-67 c -1,-2 -2,-3 -4,-4 1,1 3,2 4,4 z m -4,-4 c -14,-12 -35,-10 -64,19 -38,26 -69,111 -19,32 25,-46 43,-24 47,5 3,-29 25,-60 36,-56 z m -36,56 c -1,6 -1,12 1,17 0,-6 0,-11 -1,-17 z m -122,65 c 1,-1 1,-1 2,-2 -2,-0 -2,1 -2,2 z m 52,-8 c 1,3 2,6 4,9 -1,-4 -3,-7 -4,-9 z m 380,-303 c -1,-0 -5,4 -1,2 1,-1 1,-2 1,-2 z m -1,2 -2,1 2,-1 z m -10,6 c 4,9 8,17 12,26 -3,-9 -7,-17 -12,-26 z m 12,26 c 34,89 -13,183 -0,275 -8,49 14,221 5,89 1,-97 6,-189 19,-285 -0,-28 -11,-53 -23,-78 z m -38,-24 -0,0 0,-0 z m 126,4 1,4 -1,-4 z m -0,1 -0,0 0,-0 z m -0,0 -0,0 0,-0 z m 0,0 -0,2 0,-2 z M 557,2178 l -0,1 0,-1 z m -8,2 c -2,49 -95,45 -12,15 l 12,-15 z m -65,39 c -7,5 -14,9 -20,12 -43,31 -120,109 -49,34 14,-27 -82,-26 -111,-24 0,0 2,1 4,2 -16,0 -14,-1 -4,-2 -6,-6 123,-2 101,-9 25,2 39,7 59,-1 8,-6 15,-10 20,-12 z m 46,5 c -13,20 -24,49 -33,76 -2,24 -10,59 -10,77 -11,20 -5,-26 10,-77 2,-25 -3,-39 -28,-16 15,-24 34,-49 61,-61 z m -2,1 -0,0 0,-0 z m -1,1 0,0 0,-0 z m -108,3 -1,0 1,-0 z m 36,11 -0,0 0,-0 z m 56,18 -0,0 0,-0 z m -114,12 0,0 0,-0 z m 69,2 -0,0 0,-0 z m 33,18 -0,0 0,-0 z m 7,53 0,0 -0,-0 z m 216,17 -0,0 0,-0 z M 318,2361 c 16,-1 -4,19 0,0 z m 1,5 0,0 -0,-0 z m -76,41 0,0 -0,-0 z m 239,18 0,0 0,-0 z m -1,0 c -0,0 -0,1 -1,1 3,3 2,-2 1,-1 z m -1,0 0,1 -0,-1 z m 1,1 1,1 -1,-1 z m -238,9 -9,1 9,-1 z m -1,1 -0,0 0,-0 z m 2,1 -1,0 1,-0 z m -32,5 0,0 -0,0 z m 19,6 0,0 -0,-0 z m 144,17 c 3,46 -37,109 0,0 z m -172,6 -0,0 0,-0 z m -0,0 2,1 -2,-1 z m -0,0 -0,0 0,-0 z m 3,0 -0,0 0,-0 z m -4,1 -0,0 0,-0 z m 3,0 -0,0 0,-0 z m -43,8 0,1 -0,-1 z m 25,17 0,0 -0,-0 z m -17,37 -2,7 2,-7 z m 581,71 c 24,82 3,170 34,250 5,6 8,13 9,21 0,-1 0,-2 1,-4 -27,-87 -6,-184 -43,-267 z m 43,271 c -2,13 -3,23 -2,32 2,-11 3,-22 2,-32 z m -152,-256 c -38,89 43,203 -32,273 -34,84 -111,-67 -173,-2 -34,29 -78,9 -119,2 6,3 11,8 16,16 58,12 95,14 147,-24 66,14 111,85 148,-1 17,-34 92,-67 17,-35 11,-74 -12,-152 -4,-228 z M 316,2892 c -8,-5 -16,-5 -25,-3 8,0 16,1 25,3 z m -25,-3 c -27,-0 -51,11 -66,55 -16,38 -18,39 -10,26 -2,6 -3,13 -3,20 21,-78 205,-104 124,-0 5,42 11,121 24,30 -6,-82 131,-139 189,-89 2,23 -0,56 -1,86 l 3,-7 c 11,44 14,71 -3,19 0,30 4,56 19,66 -19,-67 12,-172 81,-179 4,47 -22,160 9,53 3,-54 -17,-65 33,-103 -20,13 -124,98 -61,41 -52,28 -70,113 -72,23 -69,-51 -164,-18 -203,54 3,68 -12,54 -7,-6 71,-87 -77,-78 -123,-24 -4,6 -7,12 -10,16 2,-6 5,-11 10,-16 15,-24 41,-58 67,-66 z m 256,140 c -0,-4 -0,-8 0,-12 l -2,5 c 1,2 1,4 2,6 z m 488,-366 c -1,0 -4,12 -10,45 21,51 -106,95 -103,113 1,1 2,2 3,4 -2,-1 -3,-2 -3,-4 -12,-6 -37,70 -70,71 -31,44 -57,49 -61,15 -6,26 -19,54 -28,69 58,-64 145,-91 201,-158 32,-33 95,-45 30,-4 -54,81 -128,142 -210,194 -40,28 117,-67 104,-60 35,-28 180,-27 59,-38 -11,-29 92,-170 163,-118 73,23 163,74 226,-2 42,-91 -34,71 -96,33 -45,2 -130,-71 -40,-20 57,50 208,-105 91,-18 -80,51 -147,-39 -222,-28 -55,19 -37,32 -21,-10 -15,-28 -11,-86 -14,-86 z m -273,314 c -2,3 -5,5 -7,8 -5,10 -1,5 7,-8 z m 271,-308 c 6,21 -11,41 0,0 z m -1,64 c 29,27 -32,69 1,12 l -1,-12 z M 1099,2763 c 85,47 -80,1 -2,1 l 3,-0 -1,-1 z m 1,1 0,0 -0,-0 z m -53,18 0,0 -0,-0 z m -53,16 0,0 -0,0 z m 195,12 -0,0 0,-0 z m -507,21 1,1 -1,-1 z m 236,2 c 13,31 -33,41 0,0 z m 14,9 -1,1 1,-1 z m -4,4 0,0 -0,-0 z m -1,0 -1,2 1,-2 z m 42,10 0,0 -0,-0 z m -77,12 -1,1 1,-1 z m -415,17 -0,0 0,-0 z m -1,0 -0,0 0,-0 z m 447,27 -2,2 2,-2 z m 3,2 c -51,19 50,16 0,0 z m -369,21 -0,0 0,-0 z m 346,0 1,0 -1,-0 z M 549,2984 l -0,0 0,-0 z m -204,16 0,0 -0,-0 z m 286,16 c -19,38 -29,154 -8,165 -8,-55 3,-105 8,-165 z m 10,3 -0,0 0,-0 z m 134,1 0,0 -0,-0 z m -423,0 0,0 0,-0 z m 424,0 c -16,92 -15,195 9,287 22,58 -24,-118 -5,-165 -15,-40 -4,-82 -4,-122 z m -134,1 1,0 -1,0 z m -289,10 -0,0 0,-0 z m -4,16 -0,0 0,-0 z m -4,20 -0,0 0,-0 z m 0,1 -1,0 1,-0 z m 218,28 0,1 -0,-1 z m 1,2 1,1 -1,-1 z m 2,1 -0,0 0,-0 z m 205,12 0,0 0,-0 z m -157,66 c -2,105 16,211 12,315 -42,-19 -130,-23 -179,31 -66,-2 -87,-137 -170,-92 44,-8 124,35 40,9 -120,-9 96,6 77,89 -67,47 -149,2 -220,46 -29,34 -33,68 -2,14 67,-55 173,4 230,-66 77,46 130,-95 207,-20 37,15 59,5 21,1 19,-78 -13,-156 -4,-237 -0,-31 -9,-60 -13,-90 z m 159,35 0,0 0,-0 z m -4,109 1,1 -1,-1 z m 8,6 c 2,1 8,5 21,14 0,-0 0,-0 0,-0 -10,-7 -19,-12 -21,-14 z m 21,14 c 11,7 25,16 37,25 -7,-15 -13,-30 -37,-25 z m 37,25 c 5,10 9,19 20,22 2,-1 4,-2 7,-4 -6,-5 -16,-11 -27,-19 z m 27,19 c 3,2 6,4 6,5 74,-43 163,7 240,0 38,-30 173,-9 72,-10 -97,1 -92,51 -34,107 -27,-22 -120,-151 -212,-98 -67,-30 -99,61 -32,102 -9,65 -52,-68 -86,-111 -51,-29 -71,-28 -29,-8 0,-0 0,-0 0,-0 0,0 0,0 0,0 5,2 10,4 16,7 53,71 93,151 52,238 -11,34 -7,133 -5,136 9,-40 6,-195 15,-81 -6,51 -15,138 4,36 -2,-67 25,-145 30,-201 4,39 13,127 37,167 -1,-4 -2,-8 -3,-13 l -2,-21 -4,-21 c 12,17 18,52 18,68 2,2 4,4 7,5 7,-38 -51,-146 15,-73 33,-0 -75,-82 -62,-135 -44,-43 -48,-102 32,-94 95,-31 160,57 215,118 36,-13 -114,-124 0,-112 52,-15 13,110 36,13 21,-62 126,22 135,-21 0,-1 0,-2 1,-3 -73,-3 -159,-45 -226,-1 -77,-15 -163,-39 -237,-1 z m 85,302 c -3,-3 -6,-8 -9,-13 6,24 9,23 9,13 z m -159,-315 c -0,-0 -0,-0 -0,-0 -23,119 15,234 -9,355 25,63 104,98 115,177 0,0 0,0 0,0 3,-25 -38,-123 -93,-148 -21,-43 -14,-90 -9,-138 -0,-0 -0,-1 0,-3 5,-43 8,-87 -11,-126 5,-38 22,-78 6,-116 z M 794,3613 c -0,1 -0,2 -0,3 1,1 5,-4 0,-3 -0,0 -0,0 -0,0 z m 102,290 c -0,0 -0,1 -0,1 -0,-0 -0,-1 -0,-1 -35,-36 -84,-83 -119,-107 29,49 89,86 128,115 -3,-3 -5,-5 -8,-8 z M 776,3796 c -2,-3 -3,-6 -5,-9 -1,-3 -3,-2 -6,2 3,2 7,4 11,7 z m -11,-7 c -0,-0 -1,-1 -1,-1 0,1 0,2 0,2 0,-1 1,-1 1,-2 z m -1,2 c -4,7 -8,20 -9,33 6,-11 10,-23 9,-33 z m -9,33 c -15,27 -45,54 -50,64 -0,1 -0,2 -1,2 -0,-1 0,-1 1,-2 6,-25 12,-52 16,-73 -14,39 -50,85 -8,92 -8,-104 109,56 56,-35 -14,-11 -17,-30 -15,-48 z m -34,-9 c 5,-13 7,-25 3,-35 1,6 -1,19 -3,35 z m 34,-467 -0,2 0,-2 z m 491,30 c 30,16 105,4 29,15 -5,-12 -20,-8 -29,-15 z m -135,1 0,0 -0,-0 z m 66,7 2,2 -2,-2 z m -69,2 0,0 -0,-0 z m -248,5 -0,0 0,-0 z m 187,1 0,0 0,-0 z m 83,5 0,0 -0,0 z m -30,7 0,0 -0,-0 z m -235,9 0,0 -0,-0 z m -544,15 -0,0 0,-0 z m -0,0 0,0 0,-0 z m -36,6 0,0 -0,-0 z m 73,24 -0,0 0,-0 z m 276,3 0,0 -0,-0 z m -261,6 1,1 -1,-1 z m 159,14 -1,1 1,-1 z m -28,5 0,0 -0,-0 z m -3,10 0,0 -0,-0 z m 127,5 -0,0 0,-0 z m -228,0 -0,0 0,-0 z m 501,2 0,0 0,-0 z m -417,3 0,0 -0,-0 z m 674,2 1,0 -1,-0 z m -616,3 c -41,16 -118,20 -164,40 10,-3 23,-3 40,-0 88,-40 255,-43 206,98 -6,54 40,115 -42,127 -30,19 -81,-12 -102,51 -19,37 -121,156 -42,69 49,-61 85,-139 164,-88 53,0 -85,-11 2,-36 34,-18 37,7 25,34 -10,22 -29,45 -50,47 16,10 25,44 -6,69 53,-13 64,-137 143,-104 -61,-94 -152,186 -112,40 18,-17 28,-35 33,-54 0,-0 0,-0 0,-0 16,-58 -13,-127 0,-192 13,-88 -32,-68 -94,-99 z m 36,341 c -4,-3 -9,-4 -14,-2 5,2 9,3 14,2 z m -14,-2 c -3,-1 -5,-3 -8,-5 -32,37 -117,46 -120,93 29,-52 132,-75 102,-33 38,-31 76,-60 7,-21 4,-22 11,-32 19,-35 z m -186,-299 c -6,2 -10,4 -14,7 4,-2 9,-5 14,-7 z m -14,7 c -16,9 -25,22 -24,40 -7,-77 -100,-1 -149,-19 -42,25 -43,59 -4,10 46,-13 98,-1 139,-14 23,32 -22,81 -35,100 -1,1 -2,3 -3,4 4,-5 13,-14 28,-28 l 14,-14 10,-16 c -7,24 -39,53 -51,61 4,-1 12,-5 26,-14 43,-56 -34,105 19,30 26,-43 -3,-113 28,-138 z M 294,3681 c -3,1 -3,-0 -2,-3 -5,6 -3,6 2,3 z m 616,-157 c 1,3 1,6 2,9 6,17 27,44 44,62 32,32 20,22 0,0 -2,-2 -4,-4 -6,-6 -34,-5 -31,-19 -38,-56 -1,-3 -2,-6 -2,-9 z m -379,0 0,0 -0,-0 z m -28,7 0,0 -0,0 z m 416,1 0,0 -0,-0 z m -32,0 c 5,44 -29,109 -10,26 l 3,-9 6,-17 z m -509,4 -0,0 0,-0 z m 252,8 0,0 -0,-0 z m 1,4 -2,0 2,-0 z m -314,2 0,0 -0,0 z m -24,3 -1,1 1,-1 z m 57,4 0,0 -0,-0 z m 447,56 -1,1 1,-1 z m 71,1 -1,1 1,-1 z m -521,2 -1,1 1,-1 z m 8,5 0,0 0,-0 z m -13,16 -0,1 0,-1 z m -2,0 3,3 -3,-3 z m 2,1 -0,0 0,-0 z m -24,17 -0,0 0,-0 z m -2,20 -0,0 0,-0 z m 19,14 c -2,44 -20,16 0,0 z m 623,12 c -6,3 7,5 0,0 z M 643,3718 l 0,0 0,-0 z m 212,2 -0,0 0,-0 z m -224,36 -0,0 0,-0 z m 228,6 -1,0 1,-0 z m -88,19 -1,2 1,-2 z m -1,2 0,0 -0,-0 z m -130,21 2,1 -2,-1 z m -10,3 -0,1 0,-1 z m 2,1 1,1 -1,-1 z m -1,0 1,1 -1,-1 z m 132,4 -0,0 0,-0 z m -136,15 -0,1 0,-1 z m 126,18 c 27,54 -27,20 0,0 z m 111,23 -0,0 0,-0 z m -77,35 4,2 L 787,3902 z m -185,5 2,2 -2,-2 z m -67,7 c -2,6 7,2 0,0 z m 4,3 -1,0 1,-0 z m 40,4 -0,0 0,-0 z m -140,13 -1,2 1,-2 z m 0,2 c -0,3e-4 -1,0 -1,1 -0,6 3,-1 1,-1 z m -1,0 -1,2 1,-2 z" transform="translate(0,-2948)" id="path5516" style="fill:#5e5162;fill-opacity:1;fill-rule:evenodd;stroke:none" /> </g> </svg>