<svg xmlns="http://www.w3.org/2000/svg" fill="#6a5b6e" width="128" height="128"><path d="m112.8 0c-1.7 0-3.4 0.5-4.7 1.6 1.1 3.7 3.5 7.7 7.1 11.3 3.6 3.6 7.6 6 11.3 7.1 2.3-3 2.1-7.3-0.7-10.1L118.1 2.3C117.9 2.1 117.7 1.9 117.5 1.7 116.1 0.6 114.5 0 112.8 0zM107.4 2.2c0 0-0.1 0.1-0.1 0.1l-13.2 13.3c1.1 3.7 3.5 7.8 7.1 11.4 3.6 3.6 7.6 6 11.4 7.1l13.3-13.2c0 0 0.1-0.1 0.1-0.1C122.1 19.5 118 17.1 114.4 13.5 110.9 9.9 108.5 5.9 107.4 2.2zM93.4 16.1 17.8 91.7C17.8 91.8 17.6 91.9 17.6 92L4.3 119.2 5.7 118.8 6.2 118.7 6.2 119.2 6.1 120.5 8.8 119.2 9.8 118.8l-0.5 1-1.6 2.8 1.1-0.3 0.4-0.2 0.1 0.4 0.1 0.9 26.7-13c0.1-0.1 0.2-0.2 0.3-0.3L111.9 34.6c-3.8-1.1-7.8-3.6-11.4-7.1-3.6-3.6-6-7.6-7.1-11.3zm-88 103.5L3.9 120 0 128 8.6 123.8 8.5 123l-1.5 0.4-0.8 0.2 0.4-0.7 1.4-2.6-2.2 1-0.6 0.3L5.3 121 5.4 119.6z"/></svg>