<svg xmlns="http://www.w3.org/2000/svg" fill="#6a5b6e" width="128" height="128"><path d="m64-0.1c-35.3 0-64 28.7-64 64.1C0 99.3 28.7 128 64 128 99.3 128 128 99.3 128 64 128 28.6 99.3-0.1 64-0.1zm0 1.8c34.4 0 62.2 27.9 62.2 62.3 0 34.4-27.8 62.3-62.2 62.3-34.4 0-62.2-27.9-62.2-62.2C1.8 29.6 29.6 1.7 64 1.7zM64 23 28.5 24.8c-0.3 0-0.5 0-0.7 0.1-0.4-0.1-0.8-0.1-1.2-0.1-1.8 0.1-3.4 1.1-3.9 2.8L8 76C7.8 76.5 7.8 77 7.9 77.5 7.7 78.1 7.7 78.7 7.7 79.4c0 6.1 1.2 11.1 8.1 11.1 6.2 0 11.3-3.9 12.3-9.1L36 61.5 64 62.5 92 61.5 99.9 81.4c1.1 5.2 6.2 9.1 12.3 9.1 6.9 0 8.1-5 8.1-11.1 0-0.7-0.1-1.3-0.2-1.9 0.1-0.5 0.1-1-0.1-1.5L105.3 27.6c-0.5-1.6-2.1-2.7-3.9-2.7-0.4 0-0.8 0-1.2 0.1C100 24.9 99.7 24.9 99.5 24.8L64 23zm25.8 6.4c0.1 0 0.2 0 0.4 0 2.1 0 3.8 1.8 3.8 4 0 2.2-1.7 4-3.7 4-2.1 0-3.7-1.8-3.7-4 0-2.1 1.5-3.8 3.4-4zm-51.9 1.7c6 0 10.9 5.2 10.9 11.6 0 6.4-4.9 11.5-10.9 11.5-6 0-10.9-5.2-10.9-11.5 0-6.4 4.9-11.6 10.9-11.6zm43.6 7.6c2.1 0 3.8 1.8 3.8 4 0 2.2-1.7 4-3.8 4-2.1 0-3.7-1.8-3.7-4 0-2.2 1.7-4 3.8-4zm17.4 0c2.1 0 3.8 1.8 3.8 4 0 2.2-1.7 4-3.7 4-2.1 0-3.8-1.8-3.8-4 0-2.2 1.7-4 3.8-4zm-8.7 9.2c2.1 0 3.8 1.8 3.8 4 0 2.2-1.7 4-3.7 4-2.1 0-3.7-1.8-3.7-4 0-2.2 1.7-4 3.8-4z"/></svg>