<svg xmlns="http://www.w3.org/2000/svg" fill="#0c1821" width="128" height="128"><path d="m7 0c-2.8 0-5.1 6.6-5.1 14.9l0 58.1c0 8.3 2.3 15 5.1 15l113.9 0c2.8 0 5.1-6.7 5.1-15l0-58.1C126.1 6.6 123.8 0 121 0L7 0zm2.5 1.9 108.9 0c2.7 0 4.9 6.3 4.9 14.3l0 55.6c0 7.9-2.2 14.3-4.9 14.3l-108.9 0c-2.7 0-4.9-6.4-4.9-14.3l0-55.6c0-7.9 2.2-14.3 4.9-14.3zm4.5 6.5 0 2 15.8 0 0-2-15.8 0zM19 14.2l0 2.1 25.7 0 0-2.1-25.7 0zm0 5.7 0 2.1 24.1 0 0-2.1-24.1 0zm3.5 5.8 0 2 22.9 0 0-2-22.9 0zm0 5.7 0 2 23.6 0 0-2-23.6 0zm-8.5 5.7 0 2.1 24.6 0 0-2.1-24.6 0zM19 42.8l0 2.1 22.9 0 0-2.1-22.9 0zm0 5.8 0 2 23.4 0 0-2-23.4 0zm3.5 5.7 0 2 25.3 0 0-2-25.2 0zm0 5.7 0 2.1 25 0 0-2.1-25 0zm5 5.7 0 2.1 25.3 0 0-2.1-25.2 0zm0 5.8 0 2 25.5 0 0-2-25.5 0zm-20.5 19c-2.8 0-4.9 2.7-5.1 6l-0.9 11.7-0.9 9.4c-0.1 0.5 0 1.1 0 1.7l0 0.5c-0.1 1.6 0.4 3.1 1.3 4.2C2.3 126.2 3.7 128 5.1 128l117.7 0c1.4 0 2.8-1.8 3.8-4 0 0 0 0 0-0.1 0.9-1.1 1.5-2.5 1.3-4.2l-0.1-0.6c0.1-0.6 0.1-1.1 0.1-1.6l-0.9-9.4-0.9-11.7c-0.3-3.3-2.3-6-5.1-6l-113.9 0zm119 31.2 0.1 0.2c0.3 1.2-0.4 3.9-3.2 3.9l-117.7 0c-2.8 0-3.5-2.6-3.2-3.9l0-0.2c0.4 1.3 0.8 3.2 3.2 3.2l117.7 0c2.4 0 2.8-1.9 3.2-3.2z"/></svg>